<svg width="288" height="70" viewBox="0 0 288 70" fill="none" xmlns="http://www.w3.org/2000/svg">
<rect width="288" height="70" rx="35" fill="#E7C2D4"/>
<path d="M60.612 43V40.669H64.455C65.141 40.669 65.673 40.459 66.051 40.039C66.443 39.619 66.639 39.122 66.639 38.548C66.639 38.156 66.555 37.799 66.387 37.477C66.219 37.155 65.967 36.903 65.631 36.721C65.309 36.525 64.917 36.427 64.455 36.427H60.612V34.117H64.14C64.728 34.117 65.197 33.97 65.547 33.676C65.911 33.382 66.093 32.941 66.093 32.353C66.093 31.751 65.911 31.303 65.547 31.009C65.197 30.715 64.728 30.568 64.14 30.568H60.612V28.237H64.476C65.456 28.237 66.275 28.419 66.933 28.783C67.605 29.133 68.109 29.602 68.445 30.19C68.781 30.764 68.949 31.394 68.949 32.08C68.949 32.92 68.69 33.648 68.172 34.264C67.668 34.866 66.926 35.314 65.946 35.608L66.072 34.684C67.164 34.992 68.004 35.503 68.592 36.217C69.194 36.917 69.495 37.764 69.495 38.758C69.495 39.542 69.299 40.256 68.907 40.9C68.529 41.53 67.969 42.041 67.227 42.433C66.499 42.811 65.61 43 64.56 43H60.612ZM58.512 43V28.237H61.347V43H58.512ZM76.233 43.21C75.211 43.21 74.287 42.979 73.461 42.517C72.649 42.041 71.998 41.404 71.508 40.606C71.032 39.794 70.794 38.891 70.794 37.897C70.794 36.903 71.032 36.014 71.508 35.23C71.984 34.432 72.635 33.802 73.461 33.34C74.287 32.864 75.204 32.626 76.212 32.626C77.248 32.626 78.172 32.864 78.984 33.34C79.81 33.802 80.461 34.432 80.937 35.23C81.413 36.014 81.651 36.903 81.651 37.897C81.651 38.891 81.413 39.794 80.937 40.606C80.461 41.404 79.81 42.041 78.984 42.517C78.172 42.979 77.255 43.21 76.233 43.21ZM76.212 40.648C76.73 40.648 77.185 40.536 77.577 40.312C77.983 40.074 78.291 39.752 78.501 39.346C78.725 38.926 78.837 38.45 78.837 37.918C78.837 37.386 78.725 36.917 78.501 36.511C78.277 36.105 77.969 35.79 77.577 35.566C77.185 35.328 76.73 35.209 76.212 35.209C75.708 35.209 75.26 35.328 74.868 35.566C74.476 35.79 74.168 36.105 73.944 36.511C73.72 36.917 73.608 37.386 73.608 37.918C73.608 38.45 73.72 38.926 73.944 39.346C74.168 39.752 74.476 40.074 74.868 40.312C75.26 40.536 75.708 40.648 76.212 40.648ZM88.1891 43.21C87.1671 43.21 86.2431 42.979 85.4171 42.517C84.6051 42.041 83.9541 41.404 83.4641 40.606C82.9881 39.794 82.7501 38.891 82.7501 37.897C82.7501 36.903 82.9881 36.014 83.4641 35.23C83.9401 34.432 84.5911 33.802 85.4171 33.34C86.2431 32.864 87.1601 32.626 88.1681 32.626C89.2041 32.626 90.1281 32.864 90.9401 33.34C91.7661 33.802 92.4171 34.432 92.8931 35.23C93.3691 36.014 93.6071 36.903 93.6071 37.897C93.6071 38.891 93.3691 39.794 92.8931 40.606C92.4171 41.404 91.7661 42.041 90.9401 42.517C90.1281 42.979 89.2111 43.21 88.1891 43.21ZM88.1681 40.648C88.6861 40.648 89.1411 40.536 89.5331 40.312C89.9391 40.074 90.2471 39.752 90.4571 39.346C90.6811 38.926 90.7931 38.45 90.7931 37.918C90.7931 37.386 90.6811 36.917 90.4571 36.511C90.2331 36.105 89.9251 35.79 89.5331 35.566C89.1411 35.328 88.6861 35.209 88.1681 35.209C87.6641 35.209 87.2161 35.328 86.8241 35.566C86.4321 35.79 86.1241 36.105 85.9001 36.511C85.6761 36.917 85.5641 37.386 85.5641 37.918C85.5641 38.45 85.6761 38.926 85.9001 39.346C86.1241 39.752 86.4321 40.074 86.8241 40.312C87.2161 40.536 87.6641 40.648 88.1681 40.648ZM101.846 43L97.9192 37.771L101.825 32.857H104.996L100.418 38.401L100.523 37.057L105.206 43H101.846ZM95.3782 43V27.817H98.1292V43H95.3782ZM117.714 43.21C116.636 43.21 115.635 43.021 114.711 42.643C113.787 42.251 112.975 41.712 112.275 41.026C111.589 40.326 111.057 39.514 110.679 38.59C110.315 37.666 110.133 36.672 110.133 35.608C110.133 34.544 110.315 33.55 110.679 32.626C111.057 31.702 111.589 30.897 112.275 30.211C112.975 29.525 113.78 28.986 114.69 28.594C115.614 28.202 116.622 28.006 117.714 28.006C118.89 28.006 119.926 28.202 120.822 28.594C121.718 28.972 122.509 29.497 123.195 30.169L121.263 32.101C120.857 31.653 120.36 31.303 119.772 31.051C119.184 30.799 118.498 30.673 117.714 30.673C117.028 30.673 116.398 30.792 115.824 31.03C115.264 31.254 114.774 31.59 114.354 32.038C113.934 32.472 113.612 32.997 113.388 33.613C113.164 34.215 113.052 34.88 113.052 35.608C113.052 36.35 113.164 37.022 113.388 37.624C113.612 38.226 113.934 38.751 114.354 39.199C114.774 39.633 115.264 39.969 115.824 40.207C116.398 40.445 117.028 40.564 117.714 40.564C118.54 40.564 119.247 40.438 119.835 40.186C120.437 39.934 120.941 39.577 121.347 39.115L123.279 41.047C122.593 41.733 121.795 42.265 120.885 42.643C119.975 43.021 118.918 43.21 117.714 43.21ZM129.471 43.21C128.449 43.21 127.525 42.979 126.699 42.517C125.887 42.041 125.236 41.404 124.746 40.606C124.27 39.794 124.032 38.891 124.032 37.897C124.032 36.903 124.27 36.014 124.746 35.23C125.222 34.432 125.873 33.802 126.699 33.34C127.525 32.864 128.442 32.626 129.45 32.626C130.486 32.626 131.41 32.864 132.222 33.34C133.048 33.802 133.699 34.432 134.175 35.23C134.651 36.014 134.889 36.903 134.889 37.897C134.889 38.891 134.651 39.794 134.175 40.606C133.699 41.404 133.048 42.041 132.222 42.517C131.41 42.979 130.493 43.21 129.471 43.21ZM129.45 40.648C129.968 40.648 130.423 40.536 130.815 40.312C131.221 40.074 131.529 39.752 131.739 39.346C131.963 38.926 132.075 38.45 132.075 37.918C132.075 37.386 131.963 36.917 131.739 36.511C131.515 36.105 131.207 35.79 130.815 35.566C130.423 35.328 129.968 35.209 129.45 35.209C128.946 35.209 128.498 35.328 128.106 35.566C127.714 35.79 127.406 36.105 127.182 36.511C126.958 36.917 126.846 37.386 126.846 37.918C126.846 38.45 126.958 38.926 127.182 39.346C127.406 39.752 127.714 40.074 128.106 40.312C128.498 40.536 128.946 40.648 129.45 40.648ZM143.485 43V37.183C143.485 36.581 143.296 36.091 142.918 35.713C142.54 35.335 142.05 35.146 141.448 35.146C141.056 35.146 140.706 35.23 140.398 35.398C140.09 35.566 139.845 35.804 139.663 36.112C139.495 36.42 139.411 36.777 139.411 37.183L138.34 36.637C138.34 35.839 138.508 35.146 138.844 34.558C139.194 33.956 139.67 33.487 140.272 33.151C140.888 32.815 141.581 32.647 142.351 32.647C143.093 32.647 143.758 32.836 144.346 33.214C144.934 33.578 145.396 34.061 145.732 34.663C146.068 35.251 146.236 35.888 146.236 36.574V43H143.485ZM136.66 43V32.857H139.411V43H136.66ZM151.938 43.231C151.364 43.231 150.797 43.154 150.237 43C149.691 42.846 149.187 42.636 148.725 42.37C148.263 42.09 147.864 41.754 147.528 41.362L149.166 39.703C149.516 40.095 149.922 40.389 150.384 40.585C150.846 40.781 151.357 40.879 151.917 40.879C152.365 40.879 152.701 40.816 152.925 40.69C153.163 40.564 153.282 40.375 153.282 40.123C153.282 39.843 153.156 39.626 152.904 39.472C152.666 39.318 152.351 39.192 151.959 39.094C151.567 38.982 151.154 38.863 150.72 38.737C150.3 38.597 149.894 38.422 149.502 38.212C149.11 37.988 148.788 37.687 148.536 37.309C148.298 36.917 148.179 36.413 148.179 35.797C148.179 35.153 148.333 34.593 148.641 34.117C148.963 33.641 149.418 33.27 150.006 33.004C150.594 32.738 151.287 32.605 152.085 32.605C152.925 32.605 153.681 32.752 154.353 33.046C155.039 33.34 155.606 33.781 156.054 34.369L154.395 36.028C154.087 35.65 153.737 35.377 153.345 35.209C152.967 35.041 152.554 34.957 152.106 34.957C151.7 34.957 151.385 35.02 151.161 35.146C150.951 35.272 150.846 35.447 150.846 35.671C150.846 35.923 150.965 36.119 151.203 36.259C151.455 36.399 151.777 36.525 152.169 36.637C152.561 36.735 152.967 36.854 153.387 36.994C153.821 37.12 154.227 37.302 154.605 37.54C154.997 37.778 155.312 38.093 155.55 38.485C155.802 38.877 155.928 39.381 155.928 39.997C155.928 40.991 155.571 41.782 154.857 42.37C154.143 42.944 153.17 43.231 151.938 43.231ZM162.109 43.21C161.213 43.21 160.415 43.021 159.715 42.643C159.029 42.265 158.49 41.74 158.098 41.068C157.706 40.396 157.51 39.619 157.51 38.737V32.857H160.282V38.674C160.282 39.094 160.352 39.458 160.492 39.766C160.632 40.06 160.842 40.284 161.122 40.438C161.402 40.592 161.731 40.669 162.109 40.669C162.683 40.669 163.131 40.494 163.453 40.144C163.775 39.794 163.936 39.304 163.936 38.674V32.857H166.687V38.737C166.687 39.633 166.491 40.417 166.099 41.089C165.721 41.761 165.182 42.286 164.482 42.664C163.796 43.028 163.005 43.21 162.109 43.21ZM168.878 43V27.817H171.629V43H168.878ZM175.558 43V28.636H178.309V43H175.558ZM173.185 35.272V32.857H180.682V35.272H173.185ZM186.225 43.21C185.301 43.21 184.468 42.979 183.726 42.517C182.984 42.055 182.403 41.425 181.983 40.627C181.563 39.829 181.353 38.933 181.353 37.939C181.353 36.931 181.563 36.028 181.983 35.23C182.403 34.432 182.984 33.802 183.726 33.34C184.468 32.878 185.301 32.647 186.225 32.647C186.953 32.647 187.604 32.794 188.178 33.088C188.752 33.382 189.207 33.795 189.543 34.327C189.893 34.845 190.082 35.433 190.11 36.091V39.745C190.082 40.417 189.893 41.012 189.543 41.53C189.207 42.048 188.752 42.461 188.178 42.769C187.604 43.063 186.953 43.21 186.225 43.21ZM186.729 40.669C187.499 40.669 188.122 40.417 188.598 39.913C189.074 39.395 189.312 38.73 189.312 37.918C189.312 37.386 189.2 36.917 188.976 36.511C188.766 36.091 188.465 35.769 188.073 35.545C187.695 35.307 187.247 35.188 186.729 35.188C186.225 35.188 185.777 35.307 185.385 35.545C185.007 35.769 184.706 36.091 184.482 36.511C184.272 36.917 184.167 37.386 184.167 37.918C184.167 38.464 184.272 38.947 184.482 39.367C184.706 39.773 185.007 40.095 185.385 40.333C185.777 40.557 186.225 40.669 186.729 40.669ZM189.165 43V40.27L189.606 37.792L189.165 35.356V32.857H191.895V43H189.165ZM195.819 43V28.636H198.57V43H195.819ZM193.446 35.272V32.857H200.943V35.272H193.446ZM202.49 43V32.857H205.262V43H202.49ZM203.876 31.219C203.428 31.219 203.057 31.072 202.763 30.778C202.469 30.47 202.322 30.092 202.322 29.644C202.322 29.21 202.469 28.839 202.763 28.531C203.057 28.223 203.428 28.069 203.876 28.069C204.338 28.069 204.709 28.223 204.989 28.531C205.283 28.839 205.43 29.21 205.43 29.644C205.43 30.092 205.283 30.47 204.989 30.778C204.709 31.072 204.338 31.219 203.876 31.219ZM212.466 43.21C211.444 43.21 210.52 42.979 209.694 42.517C208.882 42.041 208.231 41.404 207.741 40.606C207.265 39.794 207.027 38.891 207.027 37.897C207.027 36.903 207.265 36.014 207.741 35.23C208.217 34.432 208.868 33.802 209.694 33.34C210.52 32.864 211.437 32.626 212.445 32.626C213.481 32.626 214.405 32.864 215.217 33.34C216.043 33.802 216.694 34.432 217.17 35.23C217.646 36.014 217.884 36.903 217.884 37.897C217.884 38.891 217.646 39.794 217.17 40.606C216.694 41.404 216.043 42.041 215.217 42.517C214.405 42.979 213.488 43.21 212.466 43.21ZM212.445 40.648C212.963 40.648 213.418 40.536 213.81 40.312C214.216 40.074 214.524 39.752 214.734 39.346C214.958 38.926 215.07 38.45 215.07 37.918C215.07 37.386 214.958 36.917 214.734 36.511C214.51 36.105 214.202 35.79 213.81 35.566C213.418 35.328 212.963 35.209 212.445 35.209C211.941 35.209 211.493 35.328 211.101 35.566C210.709 35.79 210.401 36.105 210.177 36.511C209.953 36.917 209.841 37.386 209.841 37.918C209.841 38.45 209.953 38.926 210.177 39.346C210.401 39.752 210.709 40.074 211.101 40.312C211.493 40.536 211.941 40.648 212.445 40.648ZM226.481 43V37.183C226.481 36.581 226.292 36.091 225.914 35.713C225.536 35.335 225.046 35.146 224.444 35.146C224.052 35.146 223.702 35.23 223.394 35.398C223.086 35.566 222.841 35.804 222.659 36.112C222.491 36.42 222.407 36.777 222.407 37.183L221.336 36.637C221.336 35.839 221.504 35.146 221.84 34.558C222.19 33.956 222.666 33.487 223.268 33.151C223.884 32.815 224.577 32.647 225.347 32.647C226.089 32.647 226.754 32.836 227.342 33.214C227.93 33.578 228.392 34.061 228.728 34.663C229.064 35.251 229.231 35.888 229.231 36.574V43H226.481ZM219.656 43V32.857H222.407V43H219.656Z" fill="black"/>
</svg>
